<svg xmlns="http://www.w3.org/2000/svg" viewBox="0 0 600 600" width="600" height="600" role="img" aria-label="Vietnamese Caramel Pork"><rect width="600" height="600" fill="#eee7db"/><circle cx="300" cy="300" r="230" fill="#e4d8bf" opacity="0.55"/><circle cx="300" cy="300" r="208" fill="#fbf6ec"/><clipPath id="p"><circle cx="300" cy="300" r="194"/></clipPath><g clip-path="url(#p)"><circle cx="300" cy="300" r="182" fill="#8fa073" opacity="0.28"/><circle cx="300" cy="300" r="175" fill="#8fa073" opacity="0.92"/><circle cx="239" cy="194" r="35" fill="#c67139" opacity="0.9"/><circle cx="368" cy="239" r="31" fill="#a8442b" opacity="0.9"/><circle cx="206" cy="231" r="20" fill="#c67139" opacity="0.9"/><circle cx="373" cy="235" r="36" fill="#c67139" opacity="0.9"/><circle cx="338" cy="271" r="15" fill="#a8442b" opacity="0.9"/><circle cx="271" cy="213" r="37" fill="#a8442b" opacity="0.9"/><circle cx="310" cy="171" r="24" fill="#e8ddc4" opacity="0.9"/><circle cx="229" cy="315" r="19" fill="#e8ddc4" opacity="0.9"/><circle cx="385" cy="350" r="17" fill="#a8442b" opacity="0.9"/><circle cx="417" cy="314" r="31" fill="#e8ddc4" opacity="0.9"/><circle cx="286" cy="324" r="21" fill="#a8442b" opacity="0.9"/><circle cx="325" cy="208" r="22" fill="#a8442b" opacity="0.9"/><circle cx="374" cy="299" r="22" fill="#c67139" opacity="0.9"/><circle cx="284" cy="336" r="16" fill="#c67139" opacity="0.9"/><circle cx="257" cy="252" r="37" fill="#c67139" opacity="0.9"/><circle cx="288" cy="421" r="17" fill="#c67139" opacity="0.9"/></g><circle cx="300" cy="300" r="208" fill="none" stroke="#dcd3c4" stroke-width="6"/></svg>