<svg xmlns="http://www.w3.org/2000/svg" viewBox="0 0 600 600" width="600" height="600" role="img" aria-label="Chicken Tagine with Preserved Lemon and Olives"><rect width="600" height="600" fill="#f0e4cc"/><circle cx="300" cy="300" r="230" fill="#e4d8bf" opacity="0.55"/><circle cx="300" cy="300" r="208" fill="#faf4e8"/><clipPath id="p"><circle cx="300" cy="300" r="194"/></clipPath><g clip-path="url(#p)"><circle cx="300" cy="300" r="182" fill="#c67139" opacity="0.28"/><rect x="318" y="283" width="75" height="77" rx="24" fill="#c67139" opacity="0.88" transform="rotate(19 356 321)"/><rect x="302" y="312" width="80" height="79" rx="24" fill="#c67139" opacity="0.88" transform="rotate(1 343 351)"/><rect x="261" y="315" width="90" height="63" rx="23" fill="#c67139" opacity="0.88" transform="rotate(33 306 347)"/><rect x="243" y="350" width="71" height="87" rx="24" fill="#8fa073" opacity="0.88" transform="rotate(-14 278 394)"/><rect x="181" y="380" width="98" height="58" rx="21" fill="#c67139" opacity="0.88" transform="rotate(1 230 409)"/><rect x="153" y="274" width="101" height="63" rx="17" fill="#c67139" opacity="0.88" transform="rotate(-1 204 306)"/><rect x="229" y="249" width="70" height="90" rx="23" fill="#a8562b" opacity="0.88" transform="rotate(35 264 294)"/><rect x="160" y="216" width="118" height="53" rx="21" fill="#8fa073" opacity="0.88" transform="rotate(-28 219 242)"/><rect x="246" y="164" width="109" height="74" rx="20" fill="#c67139" opacity="0.88" transform="rotate(-28 300 201)"/><rect x="245" y="214" width="127" height="80" rx="18" fill="#e0a93b" opacity="0.88" transform="rotate(34 308 255)"/><rect x="330" y="181" width="82" height="67" rx="18" fill="#e0a93b" opacity="0.88" transform="rotate(-3 371 214)"/><rect x="267" y="252" width="124" height="68" rx="24" fill="#c67139" opacity="0.88" transform="rotate(-9 329 286)"/></g><circle cx="300" cy="300" r="208" fill="none" stroke="#dcd3c4" stroke-width="6"/></svg>