<svg xmlns="http://www.w3.org/2000/svg" viewBox="0 0 600 600" width="600" height="600" role="img" aria-label="Doro Wot"><rect width="600" height="600" fill="#f2e8d6"/><circle cx="300" cy="300" r="230" fill="#e4d8bf" opacity="0.55"/><circle cx="300" cy="300" r="208" fill="#f6efdf"/><clipPath id="p"><circle cx="300" cy="300" r="194"/></clipPath><g clip-path="url(#p)"><circle cx="300" cy="300" r="182" fill="#b8532e" opacity="0.28"/><rect x="289" y="270" width="111" height="82" rx="14" fill="#b8532e" opacity="0.88" transform="rotate(-13 344 311)"/><rect x="305" y="320" width="113" height="87" rx="12" fill="#8a9a5b" opacity="0.88" transform="rotate(-8 361 364)"/><rect x="256" y="378" width="123" height="89" rx="16" fill="#e0a93b" opacity="0.88" transform="rotate(25 318 423)"/><rect x="251" y="381" width="85" height="69" rx="13" fill="#8a9a5b" opacity="0.88" transform="rotate(-31 293 415)"/><rect x="218" y="288" width="117" height="61" rx="23" fill="#c67139" opacity="0.88" transform="rotate(-32 276 318)"/><rect x="186" y="299" width="75" height="60" rx="18" fill="#e0a93b" opacity="0.88" transform="rotate(-13 224 329)"/><rect x="238" y="250" width="71" height="82" rx="17" fill="#b8532e" opacity="0.88" transform="rotate(-2 274 291)"/><rect x="233" y="234" width="94" height="75" rx="21" fill="#b8532e" opacity="0.88" transform="rotate(9 280 272)"/><rect x="219" y="169" width="95" height="90" rx="19" fill="#c67139" opacity="0.88" transform="rotate(-5 266 214)"/><rect x="256" y="224" width="107" height="94" rx="24" fill="#c67139" opacity="0.88" transform="rotate(2 310 271)"/><rect x="289" y="242" width="108" height="51" rx="19" fill="#c67139" opacity="0.88" transform="rotate(-5 343 268)"/><rect x="280" y="249" width="110" height="95" rx="18" fill="#b8532e" opacity="0.88" transform="rotate(-31 335 297)"/></g><circle cx="300" cy="300" r="208" fill="none" stroke="#dcd3c4" stroke-width="6"/></svg>