<svg xmlns="http://www.w3.org/2000/svg" viewBox="0 0 600 600" width="600" height="600" role="img" aria-label="Egg Fried Rice"><rect width="600" height="600" fill="#ece2cd"/><circle cx="300" cy="300" r="230" fill="#e4d8bf" opacity="0.55"/><circle cx="300" cy="300" r="208" fill="#faf4e8"/><clipPath id="p"><circle cx="300" cy="300" r="194"/></clipPath><g clip-path="url(#p)"><circle cx="300" cy="300" r="182" fill="#b8532e" opacity="0.28"/><path d="M154 155 q 146 12 291 0" fill="none" stroke="#b8532e" stroke-width="13" stroke-linecap="round" opacity="0.88" transform="rotate(3 300 300)"/><path d="M164 178 q 136 -16 271 0" fill="none" stroke="#b8532e" stroke-width="16" stroke-linecap="round" opacity="0.88" transform="rotate(-20 300 300)"/><path d="M124 184 q 176 -10 351 0" fill="none" stroke="#b8532e" stroke-width="14" stroke-linecap="round" opacity="0.88" transform="rotate(6 300 300)"/><path d="M153 208 q 147 21 294 0" fill="none" stroke="#b8532e" stroke-width="14" stroke-linecap="round" opacity="0.88" transform="rotate(-16 300 300)"/><path d="M136 217 q 164 -17 328 0" fill="none" stroke="#8fa073" stroke-width="21" stroke-linecap="round" opacity="0.88" transform="rotate(25 300 300)"/><path d="M177 226 q 123 21 247 0" fill="none" stroke="#8fa073" stroke-width="18" stroke-linecap="round" opacity="0.88" transform="rotate(11 300 300)"/><path d="M146 253 q 154 4 308 0" fill="none" stroke="#b8532e" stroke-width="19" stroke-linecap="round" opacity="0.88" transform="rotate(-16 300 300)"/><path d="M181 272 q 119 -24 237 0" fill="none" stroke="#8fa073" stroke-width="17" stroke-linecap="round" opacity="0.88" transform="rotate(-18 300 300)"/><path d="M193 276 q 107 7 214 0" fill="none" stroke="#b8532e" stroke-width="16" stroke-linecap="round" opacity="0.88" transform="rotate(-18 300 300)"/><path d="M192 293 q 108 -14 216 0" fill="none" stroke="#b8532e" stroke-width="14" stroke-linecap="round" opacity="0.88" transform="rotate(10 300 300)"/><path d="M148 305 q 152 -7 305 0" fill="none" stroke="#d99a3c" stroke-width="13" stroke-linecap="round" opacity="0.88" transform="rotate(0 300 300)"/><path d="M192 329 q 108 13 215 0" fill="none" stroke="#8fa073" stroke-width="19" stroke-linecap="round" opacity="0.88" transform="rotate(21 300 300)"/><path d="M181 331 q 119 23 239 0" fill="none" stroke="#b8532e" stroke-width="19" stroke-linecap="round" opacity="0.88" transform="rotate(12 300 300)"/><path d="M122 351 q 178 4 355 0" fill="none" stroke="#d99a3c" stroke-width="20" stroke-linecap="round" opacity="0.88" transform="rotate(8 300 300)"/><path d="M178 359 q 122 -25 245 0" fill="none" stroke="#b8532e" stroke-width="20" stroke-linecap="round" opacity="0.88" transform="rotate(22 300 300)"/><path d="M155 378 q 145 -6 290 0" fill="none" stroke="#d99a3c" stroke-width="12" stroke-linecap="round" opacity="0.88" transform="rotate(5 300 300)"/><path d="M141 402 q 159 -12 318 0" fill="none" stroke="#8a6a45" stroke-width="14" stroke-linecap="round" opacity="0.88" transform="rotate(-30 300 300)"/><path d="M191 400 q 109 21 218 0" fill="none" stroke="#8a6a45" stroke-width="15" stroke-linecap="round" opacity="0.88" transform="rotate(21 300 300)"/><path d="M172 427 q 128 -6 257 0" fill="none" stroke="#b8532e" stroke-width="11" stroke-linecap="round" opacity="0.88" transform="rotate(-17 300 300)"/><path d="M172 437 q 128 -27 256 0" fill="none" stroke="#b8532e" stroke-width="17" stroke-linecap="round" opacity="0.88" transform="rotate(-13 300 300)"/></g><circle cx="300" cy="300" r="208" fill="none" stroke="#dcd3c4" stroke-width="6"/></svg>