<svg xmlns="http://www.w3.org/2000/svg" viewBox="0 0 600 600" width="600" height="600" role="img" aria-label="Esquites"><rect width="600" height="600" fill="#f2e8d6"/><circle cx="300" cy="300" r="230" fill="#e4d8bf" opacity="0.55"/><circle cx="300" cy="300" r="208" fill="#fbf6ec"/><clipPath id="p"><circle cx="300" cy="300" r="194"/></clipPath><g clip-path="url(#p)"><circle cx="300" cy="300" r="182" fill="#c1502e" opacity="0.28"/><rect x="322" y="309" width="108" height="68" rx="23" fill="#c1502e" opacity="0.88" transform="rotate(-25 376 343)"/><rect x="288" y="335" width="120" height="66" rx="16" fill="#e0c060" opacity="0.88" transform="rotate(-5 348 368)"/><rect x="254" y="358" width="97" height="61" rx="15" fill="#8fa073" opacity="0.88" transform="rotate(-7 302 389)"/><rect x="251" y="332" width="89" height="81" rx="16" fill="#c1502e" opacity="0.88" transform="rotate(-34 295 372)"/><rect x="200" y="280" width="106" height="92" rx="22" fill="#8fa073" opacity="0.88" transform="rotate(27 252 326)"/><rect x="235" y="283" width="74" height="53" rx="23" fill="#8a6a45" opacity="0.88" transform="rotate(-33 272 310)"/><rect x="195" y="259" width="90" height="57" rx="13" fill="#8fa073" opacity="0.88" transform="rotate(3 240 288)"/><rect x="243" y="253" width="72" height="56" rx="15" fill="#8fa073" opacity="0.88" transform="rotate(-35 279 281)"/><rect x="194" y="130" width="123" height="84" rx="18" fill="#c1502e" opacity="0.88" transform="rotate(-13 255 172)"/><rect x="281" y="206" width="96" height="60" rx="16" fill="#8fa073" opacity="0.88" transform="rotate(-18 329 235)"/><rect x="311" y="158" width="94" height="93" rx="24" fill="#c1502e" opacity="0.88" transform="rotate(-29 358 205)"/><rect x="338" y="219" width="118" height="65" rx="24" fill="#8fa073" opacity="0.88" transform="rotate(29 397 251)"/></g><circle cx="300" cy="300" r="208" fill="none" stroke="#dcd3c4" stroke-width="6"/></svg>