<svg xmlns="http://www.w3.org/2000/svg" viewBox="0 0 600 600" width="600" height="600" role="img" aria-label="Garlic Prawns"><rect width="600" height="600" fill="#f0e4cc"/><circle cx="300" cy="300" r="230" fill="#e4d8bf" opacity="0.55"/><circle cx="300" cy="300" r="208" fill="#faf4e8"/><clipPath id="p"><circle cx="300" cy="300" r="194"/></clipPath><g clip-path="url(#p)"><circle cx="300" cy="300" r="182" fill="#c1502e" opacity="0.28"/><circle cx="300" cy="300" r="175" fill="#c1502e" opacity="0.92"/><circle cx="387" cy="372" r="30" fill="#e0a93b" opacity="0.9"/><circle cx="223" cy="399" r="29" fill="#e0a93b" opacity="0.9"/><circle cx="275" cy="241" r="18" fill="#e0a93b" opacity="0.9"/><circle cx="397" cy="236" r="15" fill="#8a6a45" opacity="0.9"/><circle cx="338" cy="276" r="25" fill="#e0a93b" opacity="0.9"/><circle cx="324" cy="334" r="36" fill="#8fa073" opacity="0.9"/><circle cx="219" cy="292" r="23" fill="#8fa073" opacity="0.9"/><circle cx="237" cy="278" r="15" fill="#8a6a45" opacity="0.9"/><circle cx="281" cy="368" r="14" fill="#8a6a45" opacity="0.9"/><circle cx="411" cy="341" r="24" fill="#8a6a45" opacity="0.9"/><circle cx="363" cy="305" r="30" fill="#8a6a45" opacity="0.9"/><circle cx="209" cy="364" r="27" fill="#8fa073" opacity="0.9"/><circle cx="230" cy="211" r="21" fill="#8fa073" opacity="0.9"/><circle cx="313" cy="202" r="33" fill="#8fa073" opacity="0.9"/><circle cx="380" cy="247" r="16" fill="#8fa073" opacity="0.9"/><circle cx="283" cy="177" r="28" fill="#8fa073" opacity="0.9"/></g><circle cx="300" cy="300" r="208" fill="none" stroke="#dcd3c4" stroke-width="6"/></svg>