<svg xmlns="http://www.w3.org/2000/svg" viewBox="0 0 600 600" width="600" height="600" role="img" aria-label="Hummus with Spiced Chickpeas"><rect width="600" height="600" fill="#f0e4cc"/><circle cx="300" cy="300" r="230" fill="#e4d8bf" opacity="0.55"/><circle cx="300" cy="300" r="208" fill="#fbf6ec"/><clipPath id="p"><circle cx="300" cy="300" r="194"/></clipPath><g clip-path="url(#p)"><circle cx="300" cy="300" r="182" fill="#8fa073" opacity="0.28"/><rect x="288" y="286" width="103" height="65" rx="22" fill="#e0c060" opacity="0.88" transform="rotate(-29 339 318)"/><rect x="265" y="276" width="111" height="85" rx="18" fill="#8fa073" opacity="0.88" transform="rotate(8 320 319)"/><rect x="270" y="373" width="67" height="55" rx="15" fill="#8fa073" opacity="0.88" transform="rotate(-8 304 401)"/><rect x="222" y="330" width="89" height="55" rx="21" fill="#e0c060" opacity="0.88" transform="rotate(-25 266 358)"/><rect x="181" y="293" width="127" height="67" rx="19" fill="#c67139" opacity="0.88" transform="rotate(-29 244 327)"/><rect x="210" y="258" width="111" height="84" rx="13" fill="#ded2b4" opacity="0.88" transform="rotate(-5 266 300)"/><rect x="108" y="250" width="119" height="86" rx="21" fill="#c67139" opacity="0.88" transform="rotate(-1 168 293)"/><rect x="173" y="211" width="112" height="55" rx="18" fill="#e0c060" opacity="0.88" transform="rotate(-16 229 239)"/><rect x="236" y="173" width="115" height="80" rx="22" fill="#8fa073" opacity="0.88" transform="rotate(16 294 213)"/><rect x="270" y="216" width="120" height="58" rx="20" fill="#c67139" opacity="0.88" transform="rotate(-20 330 245)"/><rect x="318" y="192" width="81" height="93" rx="17" fill="#c67139" opacity="0.88" transform="rotate(-30 359 239)"/><rect x="343" y="269" width="100" height="50" rx="14" fill="#ded2b4" opacity="0.88" transform="rotate(4 393 294)"/></g><circle cx="300" cy="300" r="208" fill="none" stroke="#dcd3c4" stroke-width="6"/></svg>