<svg xmlns="http://www.w3.org/2000/svg" viewBox="0 0 600 600" width="600" height="600" role="img" aria-label="Red Lentil Kofte"><rect width="600" height="600" fill="#f0e4cc"/><circle cx="300" cy="300" r="230" fill="#e4d8bf" opacity="0.55"/><circle cx="300" cy="300" r="208" fill="#f6efdf"/><clipPath id="p"><circle cx="300" cy="300" r="194"/></clipPath><g clip-path="url(#p)"><circle cx="300" cy="300" r="182" fill="#c1502e" opacity="0.28"/><circle cx="300" cy="300" r="175" fill="#c1502e" opacity="0.92"/><circle cx="376" cy="357" r="20" fill="#8a6a45" opacity="0.9"/><circle cx="194" cy="369" r="27" fill="#e0a93b" opacity="0.9"/><circle cx="324" cy="364" r="27" fill="#e0a93b" opacity="0.9"/><circle cx="225" cy="291" r="16" fill="#e0a93b" opacity="0.9"/><circle cx="376" cy="200" r="33" fill="#e0a93b" opacity="0.9"/><circle cx="283" cy="408" r="21" fill="#e0a93b" opacity="0.9"/><circle cx="282" cy="360" r="18" fill="#e0a93b" opacity="0.9"/><circle cx="405" cy="363" r="14" fill="#8fa073" opacity="0.9"/><circle cx="337" cy="399" r="18" fill="#8a6a45" opacity="0.9"/><circle cx="374" cy="356" r="14" fill="#e0a93b" opacity="0.9"/><circle cx="309" cy="321" r="27" fill="#8a6a45" opacity="0.9"/><circle cx="403" cy="220" r="36" fill="#8fa073" opacity="0.9"/><circle cx="302" cy="339" r="22" fill="#8fa073" opacity="0.9"/><circle cx="413" cy="263" r="34" fill="#e0a93b" opacity="0.9"/><circle cx="319" cy="227" r="22" fill="#e0a93b" opacity="0.9"/><circle cx="402" cy="287" r="19" fill="#8a6a45" opacity="0.9"/></g><circle cx="300" cy="300" r="208" fill="none" stroke="#dcd3c4" stroke-width="6"/></svg>