<svg xmlns="http://www.w3.org/2000/svg" viewBox="0 0 600 600" width="600" height="600" role="img" aria-label="Pasta alla Norma"><rect width="600" height="600" fill="#ece2cd"/><circle cx="300" cy="300" r="230" fill="#e4d8bf" opacity="0.55"/><circle cx="300" cy="300" r="208" fill="#fbf6ec"/><clipPath id="p"><circle cx="300" cy="300" r="194"/></clipPath><g clip-path="url(#p)"><circle cx="300" cy="300" r="182" fill="#c1502e" opacity="0.28"/><circle cx="288" cy="198" r="13" fill="#a8442b" opacity="0.85"/><circle cx="325" cy="234" r="18" fill="#a8442b" opacity="0.85"/><circle cx="270" cy="270" r="17" fill="#a8442b" opacity="0.85"/><circle cx="216" cy="309" r="19" fill="#a8442b" opacity="0.85"/><circle cx="234" cy="391" r="20" fill="#e0c060" opacity="0.85"/><circle cx="145" cy="309" r="18" fill="#e0c060" opacity="0.85"/><circle cx="217" cy="344" r="17" fill="#a8442b" opacity="0.85"/><circle cx="405" cy="243" r="18" fill="#a8442b" opacity="0.85"/><circle cx="412" cy="404" r="19" fill="#a8442b" opacity="0.85"/><circle cx="340" cy="291" r="16" fill="#e0c060" opacity="0.85"/><circle cx="299" cy="300" r="17" fill="#c1502e" opacity="0.85"/><circle cx="469" cy="324" r="21" fill="#a8442b" opacity="0.85"/><circle cx="278" cy="458" r="19" fill="#a8442b" opacity="0.85"/><circle cx="197" cy="406" r="19" fill="#e0c060" opacity="0.85"/><circle cx="260" cy="281" r="21" fill="#e0c060" opacity="0.85"/><circle cx="203" cy="356" r="21" fill="#8fa073" opacity="0.85"/><circle cx="405" cy="429" r="10" fill="#e0c060" opacity="0.85"/><circle cx="138" cy="329" r="12" fill="#c1502e" opacity="0.85"/><circle cx="145" cy="326" r="21" fill="#8fa073" opacity="0.85"/><circle cx="370" cy="377" r="18" fill="#c1502e" opacity="0.85"/><circle cx="282" cy="193" r="13" fill="#a8442b" opacity="0.85"/><circle cx="342" cy="432" r="14" fill="#e0c060" opacity="0.85"/><circle cx="343" cy="379" r="9" fill="#8fa073" opacity="0.85"/><circle cx="343" cy="370" r="21" fill="#8fa073" opacity="0.85"/><circle cx="304" cy="379" r="13" fill="#8fa073" opacity="0.85"/><circle cx="303" cy="369" r="13" fill="#a8442b" opacity="0.85"/><circle cx="431" cy="379" r="14" fill="#c1502e" opacity="0.85"/><circle cx="458" cy="317" r="19" fill="#c1502e" opacity="0.85"/><circle cx="262" cy="126" r="19" fill="#e0c060" opacity="0.85"/><circle cx="239" cy="264" r="18" fill="#e0c060" opacity="0.85"/><circle cx="264" cy="137" r="13" fill="#8fa073" opacity="0.85"/><circle cx="261" cy="417" r="12" fill="#a8442b" opacity="0.85"/><circle cx="173" cy="293" r="17" fill="#e0c060" opacity="0.85"/><circle cx="348" cy="327" r="21" fill="#e0c060" opacity="0.85"/><circle cx="318" cy="344" r="12" fill="#8fa073" opacity="0.85"/><circle cx="288" cy="442" r="22" fill="#a8442b" opacity="0.85"/><circle cx="438" cy="206" r="19" fill="#a8442b" opacity="0.85"/><circle cx="429" cy="319" r="11" fill="#a8442b" opacity="0.85"/><circle cx="375" cy="162" r="18" fill="#a8442b" opacity="0.85"/><circle cx="187" cy="420" r="15" fill="#8fa073" opacity="0.85"/><circle cx="212" cy="152" r="17" fill="#8fa073" opacity="0.85"/><circle cx="255" cy="190" r="16" fill="#a8442b" opacity="0.85"/><circle cx="276" cy="142" r="17" fill="#8fa073" opacity="0.85"/><circle cx="362" cy="221" r="9" fill="#8fa073" opacity="0.85"/><circle cx="188" cy="231" r="13" fill="#8fa073" opacity="0.85"/><circle cx="409" cy="233" r="21" fill="#a8442b" opacity="0.85"/><circle cx="270" cy="440" r="10" fill="#8fa073" opacity="0.85"/><circle cx="286" cy="348" r="22" fill="#c1502e" opacity="0.85"/><circle cx="451" cy="379" r="22" fill="#c1502e" opacity="0.85"/><circle cx="225" cy="199" r="13" fill="#a8442b" opacity="0.85"/><circle cx="340" cy="148" r="16" fill="#c1502e" opacity="0.85"/><circle cx="356" cy="394" r="17" fill="#a8442b" opacity="0.85"/><circle cx="249" cy="142" r="16" fill="#8fa073" opacity="0.85"/><circle cx="181" cy="277" r="16" fill="#8fa073" opacity="0.85"/><circle cx="476" cy="284" r="21" fill="#8fa073" opacity="0.85"/><circle cx="160" cy="405" r="14" fill="#8fa073" opacity="0.85"/><circle cx="302" cy="216" r="20" fill="#e0c060" opacity="0.85"/><circle cx="233" cy="327" r="19" fill="#e0c060" opacity="0.85"/><circle cx="190" cy="207" r="17" fill="#a8442b" opacity="0.85"/><circle cx="409" cy="268" r="18" fill="#e0c060" opacity="0.85"/><circle cx="316" cy="266" r="20" fill="#e0c060" opacity="0.85"/><circle cx="394" cy="333" r="10" fill="#a8442b" opacity="0.85"/><circle cx="361" cy="295" r="16" fill="#e0c060" opacity="0.85"/><circle cx="217" cy="376" r="12" fill="#e0c060" opacity="0.85"/><circle cx="205" cy="450" r="15" fill="#a8442b" opacity="0.85"/><circle cx="147" cy="375" r="10" fill="#a8442b" opacity="0.85"/><circle cx="139" cy="237" r="13" fill="#c1502e" opacity="0.85"/><circle cx="263" cy="336" r="21" fill="#e0c060" opacity="0.85"/><circle cx="370" cy="418" r="21" fill="#a8442b" opacity="0.85"/><circle cx="169" cy="264" r="12" fill="#e0c060" opacity="0.85"/><circle cx="215" cy="313" r="10" fill="#a8442b" opacity="0.85"/><circle cx="238" cy="387" r="10" fill="#8fa073" opacity="0.85"/><circle cx="399" cy="400" r="16" fill="#c1502e" opacity="0.85"/><circle cx="414" cy="186" r="20" fill="#c1502e" opacity="0.85"/><circle cx="410" cy="437" r="20" fill="#c1502e" opacity="0.85"/><circle cx="375" cy="289" r="12" fill="#a8442b" opacity="0.85"/><circle cx="212" cy="242" r="20" fill="#8fa073" opacity="0.85"/><circle cx="401" cy="270" r="11" fill="#e0c060" opacity="0.85"/><circle cx="322" cy="203" r="13" fill="#a8442b" opacity="0.85"/><circle cx="337" cy="135" r="15" fill="#c1502e" opacity="0.85"/><circle cx="463" cy="342" r="19" fill="#c1502e" opacity="0.85"/><circle cx="411" cy="248" r="12" fill="#c1502e" opacity="0.85"/><circle cx="468" cy="316" r="11" fill="#a8442b" opacity="0.85"/><circle cx="252" cy="179" r="14" fill="#c1502e" opacity="0.85"/><circle cx="200" cy="223" r="18" fill="#e0c060" opacity="0.85"/><circle cx="366" cy="372" r="15" fill="#a8442b" opacity="0.85"/><circle cx="243" cy="348" r="20" fill="#a8442b" opacity="0.85"/><circle cx="242" cy="271" r="10" fill="#c1502e" opacity="0.85"/><circle cx="202" cy="162" r="13" fill="#a8442b" opacity="0.85"/><circle cx="259" cy="255" r="20" fill="#c1502e" opacity="0.85"/><circle cx="447" cy="271" r="22" fill="#a8442b" opacity="0.85"/><circle cx="322" cy="266" r="13" fill="#e0c060" opacity="0.85"/><circle cx="230" cy="413" r="9" fill="#c1502e" opacity="0.85"/><circle cx="355" cy="163" r="12" fill="#8fa073" opacity="0.85"/><circle cx="396" cy="224" r="10" fill="#a8442b" opacity="0.85"/><circle cx="394" cy="290" r="15" fill="#8fa073" opacity="0.85"/><circle cx="318" cy="333" r="17" fill="#e0c060" opacity="0.85"/><circle cx="411" cy="233" r="22" fill="#c1502e" opacity="0.85"/><circle cx="374" cy="268" r="21" fill="#c1502e" opacity="0.85"/><circle cx="395" cy="420" r="19" fill="#c1502e" opacity="0.85"/><circle cx="208" cy="253" r="17" fill="#a8442b" opacity="0.85"/><circle cx="226" cy="232" r="13" fill="#e0c060" opacity="0.85"/><circle cx="438" cy="352" r="12" fill="#c1502e" opacity="0.85"/><circle cx="237" cy="175" r="12" fill="#c1502e" opacity="0.85"/><circle cx="249" cy="317" r="12" fill="#8fa073" opacity="0.85"/><circle cx="259" cy="272" r="12" fill="#a8442b" opacity="0.85"/><circle cx="336" cy="297" r="11" fill="#8fa073" opacity="0.85"/><circle cx="261" cy="160" r="19" fill="#c1502e" opacity="0.85"/><circle cx="299" cy="287" r="15" fill="#e0c060" opacity="0.85"/><circle cx="426" cy="359" r="19" fill="#a8442b" opacity="0.85"/><circle cx="308" cy="242" r="10" fill="#8fa073" opacity="0.85"/><circle cx="263" cy="179" r="10" fill="#c1502e" opacity="0.85"/><circle cx="357" cy="291" r="11" fill="#e0c060" opacity="0.85"/><circle cx="186" cy="397" r="20" fill="#a8442b" opacity="0.85"/><circle cx="219" cy="424" r="18" fill="#c1502e" opacity="0.85"/><circle cx="473" cy="331" r="10" fill="#a8442b" opacity="0.85"/><circle cx="331" cy="271" r="21" fill="#8fa073" opacity="0.85"/><circle cx="183" cy="241" r="15" fill="#c1502e" opacity="0.85"/><circle cx="451" cy="374" r="13" fill="#e0c060" opacity="0.85"/><circle cx="189" cy="294" r="17" fill="#a8442b" opacity="0.85"/></g><circle cx="300" cy="300" r="208" fill="none" stroke="#dcd3c4" stroke-width="6"/></svg>