<svg xmlns="http://www.w3.org/2000/svg" viewBox="0 0 600 600" width="600" height="600" role="img" aria-label="Saffron Risotto"><rect width="600" height="600" fill="#f0e4cc"/><circle cx="300" cy="300" r="230" fill="#e4d8bf" opacity="0.55"/><circle cx="300" cy="300" r="208" fill="#fbf6ec"/><clipPath id="p"><circle cx="300" cy="300" r="194"/></clipPath><g clip-path="url(#p)"><circle cx="300" cy="300" r="182" fill="#c1502e" opacity="0.28"/><rect x="355" y="323" width="112" height="92" rx="17" fill="#e0c060" opacity="0.88" transform="rotate(11 411 369)"/><rect x="310" y="338" width="85" height="76" rx="21" fill="#8fa073" opacity="0.88" transform="rotate(-20 352 376)"/><rect x="282" y="335" width="88" height="84" rx="21" fill="#c1502e" opacity="0.88" transform="rotate(16 327 377)"/><rect x="206" y="370" width="126" height="92" rx="19" fill="#a8442b" opacity="0.88" transform="rotate(12 269 416)"/><rect x="178" y="352" width="90" height="60" rx="19" fill="#e0c060" opacity="0.88" transform="rotate(8 223 382)"/><rect x="191" y="257" width="94" height="95" rx="17" fill="#8fa073" opacity="0.88" transform="rotate(-5 238 304)"/><rect x="137" y="234" width="111" height="58" rx="19" fill="#8fa073" opacity="0.88" transform="rotate(-11 192 263)"/><rect x="196" y="227" width="83" height="57" rx="15" fill="#8fa073" opacity="0.88" transform="rotate(22 237 255)"/><rect x="224" y="223" width="105" height="65" rx="13" fill="#e0c060" opacity="0.88" transform="rotate(23 276 256)"/><rect x="274" y="170" width="87" height="50" rx="23" fill="#a8442b" opacity="0.88" transform="rotate(-29 317 195)"/><rect x="287" y="258" width="89" height="51" rx="12" fill="#e0c060" opacity="0.88" transform="rotate(20 332 283)"/><rect x="293" y="264" width="109" height="70" rx="24" fill="#8fa073" opacity="0.88" transform="rotate(-14 348 299)"/></g><circle cx="300" cy="300" r="208" fill="none" stroke="#dcd3c4" stroke-width="6"/></svg>