<svg xmlns="http://www.w3.org/2000/svg" viewBox="0 0 600 600" width="600" height="600" role="img" aria-label="Spanakopita"><rect width="600" height="600" fill="#f0e4cc"/><circle cx="300" cy="300" r="230" fill="#e4d8bf" opacity="0.55"/><circle cx="300" cy="300" r="208" fill="#f6efdf"/><clipPath id="p"><circle cx="300" cy="300" r="194"/></clipPath><g clip-path="url(#p)"><circle cx="300" cy="300" r="182" fill="#8fa073" opacity="0.28"/><circle cx="373" cy="299" r="10" fill="#c1502e" opacity="0.85"/><circle cx="420" cy="344" r="17" fill="#c8a15c" opacity="0.85"/><circle cx="445" cy="326" r="10" fill="#c8a15c" opacity="0.85"/><circle cx="205" cy="315" r="18" fill="#c1502e" opacity="0.85"/><circle cx="392" cy="357" r="12" fill="#c1502e" opacity="0.85"/><circle cx="283" cy="295" r="15" fill="#c8a15c" opacity="0.85"/><circle cx="325" cy="326" r="15" fill="#e8ddc4" opacity="0.85"/><circle cx="434" cy="369" r="18" fill="#e8ddc4" opacity="0.85"/><circle cx="369" cy="429" r="14" fill="#8fa073" opacity="0.85"/><circle cx="454" cy="275" r="20" fill="#c1502e" opacity="0.85"/><circle cx="222" cy="225" r="16" fill="#c1502e" opacity="0.85"/><circle cx="298" cy="409" r="17" fill="#c8a15c" opacity="0.85"/><circle cx="175" cy="419" r="9" fill="#8fa073" opacity="0.85"/><circle cx="330" cy="155" r="13" fill="#e8ddc4" opacity="0.85"/><circle cx="325" cy="125" r="15" fill="#c1502e" opacity="0.85"/><circle cx="383" cy="222" r="18" fill="#e8ddc4" opacity="0.85"/><circle cx="254" cy="428" r="13" fill="#c8a15c" opacity="0.85"/><circle cx="296" cy="281" r="10" fill="#c8a15c" opacity="0.85"/><circle cx="332" cy="426" r="13" fill="#c8a15c" opacity="0.85"/><circle cx="172" cy="279" r="12" fill="#e8ddc4" opacity="0.85"/><circle cx="329" cy="241" r="16" fill="#e8ddc4" opacity="0.85"/><circle cx="186" cy="180" r="15" fill="#c8a15c" opacity="0.85"/><circle cx="304" cy="166" r="13" fill="#e8ddc4" opacity="0.85"/><circle cx="277" cy="443" r="15" fill="#c8a15c" opacity="0.85"/><circle cx="428" cy="203" r="12" fill="#c8a15c" opacity="0.85"/><circle cx="261" cy="454" r="10" fill="#8fa073" opacity="0.85"/><circle cx="311" cy="357" r="13" fill="#8fa073" opacity="0.85"/><circle cx="191" cy="274" r="15" fill="#e8ddc4" opacity="0.85"/><circle cx="267" cy="326" r="19" fill="#c1502e" opacity="0.85"/><circle cx="335" cy="406" r="21" fill="#c8a15c" opacity="0.85"/><circle cx="312" cy="376" r="20" fill="#c1502e" opacity="0.85"/><circle cx="393" cy="187" r="15" fill="#c8a15c" opacity="0.85"/><circle cx="354" cy="259" r="13" fill="#8fa073" opacity="0.85"/><circle cx="169" cy="389" r="11" fill="#c8a15c" opacity="0.85"/><circle cx="416" cy="316" r="17" fill="#8fa073" opacity="0.85"/><circle cx="294" cy="213" r="15" fill="#c1502e" opacity="0.85"/><circle cx="152" cy="284" r="13" fill="#c1502e" opacity="0.85"/><circle cx="268" cy="387" r="11" fill="#8fa073" opacity="0.85"/><circle cx="268" cy="436" r="20" fill="#8fa073" opacity="0.85"/><circle cx="213" cy="339" r="12" fill="#c8a15c" opacity="0.85"/><circle cx="276" cy="209" r="10" fill="#c1502e" opacity="0.85"/><circle cx="142" cy="325" r="18" fill="#e8ddc4" opacity="0.85"/><circle cx="380" cy="273" r="13" fill="#c1502e" opacity="0.85"/><circle cx="332" cy="127" r="20" fill="#8fa073" opacity="0.85"/><circle cx="454" cy="380" r="15" fill="#c8a15c" opacity="0.85"/><circle cx="162" cy="332" r="17" fill="#c1502e" opacity="0.85"/><circle cx="324" cy="299" r="11" fill="#8fa073" opacity="0.85"/><circle cx="478" cy="299" r="19" fill="#c1502e" opacity="0.85"/><circle cx="358" cy="448" r="20" fill="#e8ddc4" opacity="0.85"/><circle cx="181" cy="192" r="19" fill="#c1502e" opacity="0.85"/><circle cx="271" cy="435" r="17" fill="#c8a15c" opacity="0.85"/><circle cx="231" cy="293" r="15" fill="#e8ddc4" opacity="0.85"/><circle cx="190" cy="377" r="20" fill="#c1502e" opacity="0.85"/><circle cx="420" cy="201" r="18" fill="#8fa073" opacity="0.85"/><circle cx="188" cy="435" r="19" fill="#8fa073" opacity="0.85"/><circle cx="316" cy="130" r="15" fill="#c8a15c" opacity="0.85"/><circle cx="259" cy="242" r="13" fill="#e8ddc4" opacity="0.85"/><circle cx="203" cy="163" r="14" fill="#8fa073" opacity="0.85"/><circle cx="296" cy="347" r="18" fill="#e8ddc4" opacity="0.85"/><circle cx="476" cy="308" r="17" fill="#e8ddc4" opacity="0.85"/><circle cx="282" cy="384" r="21" fill="#c8a15c" opacity="0.85"/><circle cx="253" cy="298" r="14" fill="#c1502e" opacity="0.85"/><circle cx="237" cy="394" r="19" fill="#e8ddc4" opacity="0.85"/><circle cx="402" cy="424" r="19" fill="#c1502e" opacity="0.85"/><circle cx="395" cy="180" r="21" fill="#c1502e" opacity="0.85"/><circle cx="375" cy="356" r="13" fill="#c8a15c" opacity="0.85"/><circle cx="415" cy="359" r="21" fill="#e8ddc4" opacity="0.85"/><circle cx="208" cy="293" r="19" fill="#c8a15c" opacity="0.85"/><circle cx="422" cy="269" r="15" fill="#c8a15c" opacity="0.85"/><circle cx="356" cy="278" r="18" fill="#c1502e" opacity="0.85"/><circle cx="395" cy="190" r="11" fill="#c8a15c" opacity="0.85"/><circle cx="296" cy="247" r="20" fill="#8fa073" opacity="0.85"/><circle cx="455" cy="321" r="18" fill="#e8ddc4" opacity="0.85"/><circle cx="338" cy="401" r="10" fill="#c1502e" opacity="0.85"/><circle cx="358" cy="232" r="18" fill="#c8a15c" opacity="0.85"/><circle cx="172" cy="301" r="20" fill="#e8ddc4" opacity="0.85"/><circle cx="414" cy="412" r="10" fill="#8fa073" opacity="0.85"/><circle cx="164" cy="286" r="14" fill="#c8a15c" opacity="0.85"/><circle cx="328" cy="178" r="12" fill="#c1502e" opacity="0.85"/><circle cx="189" cy="415" r="20" fill="#e8ddc4" opacity="0.85"/><circle cx="345" cy="195" r="9" fill="#c1502e" opacity="0.85"/><circle cx="390" cy="185" r="11" fill="#c1502e" opacity="0.85"/><circle cx="267" cy="131" r="16" fill="#8fa073" opacity="0.85"/><circle cx="190" cy="181" r="9" fill="#8fa073" opacity="0.85"/><circle cx="411" cy="240" r="19" fill="#e8ddc4" opacity="0.85"/><circle cx="289" cy="404" r="9" fill="#c8a15c" opacity="0.85"/><circle cx="306" cy="297" r="13" fill="#e8ddc4" opacity="0.85"/><circle cx="429" cy="355" r="14" fill="#e8ddc4" opacity="0.85"/><circle cx="207" cy="414" r="10" fill="#e8ddc4" opacity="0.85"/><circle cx="270" cy="140" r="19" fill="#c1502e" opacity="0.85"/><circle cx="252" cy="168" r="21" fill="#c1502e" opacity="0.85"/><circle cx="336" cy="129" r="19" fill="#8fa073" opacity="0.85"/><circle cx="452" cy="251" r="12" fill="#8fa073" opacity="0.85"/><circle cx="394" cy="252" r="9" fill="#e8ddc4" opacity="0.85"/><circle cx="431" cy="374" r="17" fill="#c8a15c" opacity="0.85"/><circle cx="464" cy="338" r="14" fill="#c8a15c" opacity="0.85"/><circle cx="315" cy="427" r="16" fill="#c1502e" opacity="0.85"/><circle cx="404" cy="404" r="10" fill="#e8ddc4" opacity="0.85"/><circle cx="341" cy="147" r="17" fill="#c1502e" opacity="0.85"/><circle cx="399" cy="316" r="9" fill="#e8ddc4" opacity="0.85"/><circle cx="283" cy="462" r="17" fill="#8fa073" opacity="0.85"/><circle cx="437" cy="233" r="18" fill="#e8ddc4" opacity="0.85"/><circle cx="424" cy="267" r="18" fill="#e8ddc4" opacity="0.85"/><circle cx="269" cy="169" r="12" fill="#e8ddc4" opacity="0.85"/><circle cx="154" cy="337" r="18" fill="#c8a15c" opacity="0.85"/><circle cx="351" cy="340" r="22" fill="#c1502e" opacity="0.85"/><circle cx="391" cy="278" r="12" fill="#e8ddc4" opacity="0.85"/><circle cx="188" cy="169" r="21" fill="#e8ddc4" opacity="0.85"/><circle cx="204" cy="399" r="19" fill="#c8a15c" opacity="0.85"/><circle cx="166" cy="377" r="10" fill="#c8a15c" opacity="0.85"/><circle cx="305" cy="451" r="21" fill="#c1502e" opacity="0.85"/><circle cx="285" cy="210" r="15" fill="#c8a15c" opacity="0.85"/><circle cx="125" cy="269" r="13" fill="#8fa073" opacity="0.85"/><circle cx="221" cy="352" r="11" fill="#e8ddc4" opacity="0.85"/><circle cx="376" cy="369" r="17" fill="#8fa073" opacity="0.85"/><circle cx="402" cy="372" r="10" fill="#e8ddc4" opacity="0.85"/><circle cx="302" cy="314" r="10" fill="#8fa073" opacity="0.85"/><circle cx="316" cy="459" r="10" fill="#e8ddc4" opacity="0.85"/><circle cx="296" cy="298" r="9" fill="#8fa073" opacity="0.85"/><circle cx="368" cy="250" r="9" fill="#e8ddc4" opacity="0.85"/></g><circle cx="300" cy="300" r="208" fill="none" stroke="#dcd3c4" stroke-width="6"/></svg>