<svg xmlns="http://www.w3.org/2000/svg" viewBox="0 0 600 600" width="600" height="600" role="img" aria-label="Tabbouleh Plate"><rect width="600" height="600" fill="#f0e4cc"/><circle cx="300" cy="300" r="230" fill="#e4d8bf" opacity="0.55"/><circle cx="300" cy="300" r="208" fill="#fbf6ec"/><clipPath id="p"><circle cx="300" cy="300" r="194"/></clipPath><g clip-path="url(#p)"><circle cx="300" cy="300" r="182" fill="#8fa073" opacity="0.28"/><circle cx="319" cy="418" r="11" fill="#c67139" opacity="0.85"/><circle cx="280" cy="244" r="13" fill="#e0c060" opacity="0.85"/><circle cx="473" cy="287" r="18" fill="#c67139" opacity="0.85"/><circle cx="311" cy="310" r="15" fill="#e0c060" opacity="0.85"/><circle cx="455" cy="269" r="18" fill="#e0c060" opacity="0.85"/><circle cx="314" cy="176" r="11" fill="#c67139" opacity="0.85"/><circle cx="318" cy="154" r="15" fill="#ded2b4" opacity="0.85"/><circle cx="336" cy="245" r="13" fill="#ded2b4" opacity="0.85"/><circle cx="417" cy="246" r="20" fill="#ded2b4" opacity="0.85"/><circle cx="201" cy="252" r="20" fill="#e0c060" opacity="0.85"/><circle cx="415" cy="257" r="10" fill="#e0c060" opacity="0.85"/><circle cx="378" cy="382" r="16" fill="#c67139" opacity="0.85"/><circle cx="232" cy="271" r="10" fill="#e0c060" opacity="0.85"/><circle cx="333" cy="260" r="17" fill="#c67139" opacity="0.85"/><circle cx="296" cy="301" r="10" fill="#ded2b4" opacity="0.85"/><circle cx="323" cy="255" r="9" fill="#ded2b4" opacity="0.85"/><circle cx="370" cy="383" r="12" fill="#8fa073" opacity="0.85"/><circle cx="205" cy="161" r="10" fill="#8fa073" opacity="0.85"/><circle cx="306" cy="360" r="20" fill="#c67139" opacity="0.85"/><circle cx="297" cy="288" r="11" fill="#ded2b4" opacity="0.85"/><circle cx="462" cy="357" r="22" fill="#c67139" opacity="0.85"/><circle cx="233" cy="272" r="17" fill="#c67139" opacity="0.85"/><circle cx="135" cy="322" r="22" fill="#c67139" opacity="0.85"/><circle cx="338" cy="165" r="19" fill="#c67139" opacity="0.85"/><circle cx="398" cy="441" r="19" fill="#ded2b4" opacity="0.85"/><circle cx="402" cy="362" r="20" fill="#e0c060" opacity="0.85"/><circle cx="441" cy="299" r="10" fill="#c67139" opacity="0.85"/><circle cx="284" cy="279" r="21" fill="#e0c060" opacity="0.85"/><circle cx="450" cy="333" r="16" fill="#e0c060" opacity="0.85"/><circle cx="409" cy="253" r="17" fill="#ded2b4" opacity="0.85"/><circle cx="260" cy="297" r="10" fill="#8fa073" opacity="0.85"/><circle cx="285" cy="253" r="22" fill="#8fa073" opacity="0.85"/><circle cx="258" cy="350" r="19" fill="#e0c060" opacity="0.85"/><circle cx="262" cy="358" r="16" fill="#c67139" opacity="0.85"/><circle cx="387" cy="276" r="14" fill="#ded2b4" opacity="0.85"/><circle cx="193" cy="255" r="20" fill="#c67139" opacity="0.85"/><circle cx="342" cy="390" r="11" fill="#ded2b4" opacity="0.85"/><circle cx="187" cy="424" r="13" fill="#c67139" opacity="0.85"/><circle cx="361" cy="152" r="11" fill="#c67139" opacity="0.85"/><circle cx="234" cy="417" r="12" fill="#ded2b4" opacity="0.85"/><circle cx="325" cy="473" r="11" fill="#8fa073" opacity="0.85"/><circle cx="319" cy="405" r="9" fill="#e0c060" opacity="0.85"/><circle cx="169" cy="391" r="22" fill="#e0c060" opacity="0.85"/><circle cx="442" cy="201" r="15" fill="#ded2b4" opacity="0.85"/><circle cx="304" cy="406" r="13" fill="#ded2b4" opacity="0.85"/><circle cx="163" cy="233" r="11" fill="#8fa073" opacity="0.85"/><circle cx="336" cy="468" r="17" fill="#8fa073" opacity="0.85"/><circle cx="254" cy="468" r="9" fill="#ded2b4" opacity="0.85"/><circle cx="272" cy="406" r="17" fill="#8fa073" opacity="0.85"/><circle cx="391" cy="183" r="15" fill="#ded2b4" opacity="0.85"/><circle cx="332" cy="427" r="21" fill="#e0c060" opacity="0.85"/><circle cx="344" cy="283" r="16" fill="#c67139" opacity="0.85"/><circle cx="431" cy="349" r="19" fill="#e0c060" opacity="0.85"/><circle cx="196" cy="231" r="19" fill="#8fa073" opacity="0.85"/><circle cx="400" cy="413" r="17" fill="#8fa073" opacity="0.85"/><circle cx="464" cy="325" r="18" fill="#c67139" opacity="0.85"/><circle cx="352" cy="399" r="15" fill="#c67139" opacity="0.85"/><circle cx="291" cy="272" r="18" fill="#c67139" opacity="0.85"/><circle cx="348" cy="216" r="22" fill="#ded2b4" opacity="0.85"/><circle cx="308" cy="249" r="19" fill="#8fa073" opacity="0.85"/><circle cx="138" cy="273" r="16" fill="#e0c060" opacity="0.85"/><circle cx="356" cy="139" r="14" fill="#8fa073" opacity="0.85"/><circle cx="135" cy="235" r="21" fill="#e0c060" opacity="0.85"/><circle cx="338" cy="155" r="18" fill="#e0c060" opacity="0.85"/><circle cx="139" cy="223" r="20" fill="#ded2b4" opacity="0.85"/><circle cx="175" cy="264" r="18" fill="#c67139" opacity="0.85"/><circle cx="268" cy="406" r="16" fill="#ded2b4" opacity="0.85"/><circle cx="290" cy="316" r="18" fill="#ded2b4" opacity="0.85"/><circle cx="199" cy="176" r="20" fill="#ded2b4" opacity="0.85"/><circle cx="336" cy="274" r="18" fill="#c67139" opacity="0.85"/><circle cx="346" cy="318" r="11" fill="#ded2b4" opacity="0.85"/><circle cx="245" cy="168" r="13" fill="#8fa073" opacity="0.85"/><circle cx="294" cy="386" r="15" fill="#8fa073" opacity="0.85"/><circle cx="161" cy="301" r="13" fill="#ded2b4" opacity="0.85"/><circle cx="333" cy="441" r="19" fill="#c67139" opacity="0.85"/><circle cx="187" cy="389" r="21" fill="#e0c060" opacity="0.85"/><circle cx="206" cy="321" r="21" fill="#ded2b4" opacity="0.85"/><circle cx="373" cy="258" r="18" fill="#8fa073" opacity="0.85"/><circle cx="333" cy="140" r="15" fill="#8fa073" opacity="0.85"/><circle cx="211" cy="196" r="19" fill="#e0c060" opacity="0.85"/><circle cx="353" cy="337" r="20" fill="#c67139" opacity="0.85"/><circle cx="474" cy="308" r="15" fill="#e0c060" opacity="0.85"/><circle cx="313" cy="178" r="16" fill="#e0c060" opacity="0.85"/><circle cx="167" cy="282" r="20" fill="#ded2b4" opacity="0.85"/><circle cx="334" cy="341" r="15" fill="#e0c060" opacity="0.85"/><circle cx="350" cy="468" r="22" fill="#ded2b4" opacity="0.85"/><circle cx="164" cy="342" r="19" fill="#ded2b4" opacity="0.85"/><circle cx="229" cy="358" r="14" fill="#ded2b4" opacity="0.85"/><circle cx="454" cy="313" r="9" fill="#8fa073" opacity="0.85"/><circle cx="367" cy="191" r="19" fill="#ded2b4" opacity="0.85"/><circle cx="274" cy="153" r="12" fill="#c67139" opacity="0.85"/><circle cx="332" cy="338" r="9" fill="#8fa073" opacity="0.85"/><circle cx="320" cy="283" r="11" fill="#ded2b4" opacity="0.85"/><circle cx="244" cy="319" r="17" fill="#c67139" opacity="0.85"/><circle cx="226" cy="376" r="20" fill="#ded2b4" opacity="0.85"/><circle cx="241" cy="290" r="13" fill="#8fa073" opacity="0.85"/><circle cx="373" cy="308" r="10" fill="#e0c060" opacity="0.85"/><circle cx="406" cy="369" r="11" fill="#8fa073" opacity="0.85"/><circle cx="167" cy="371" r="12" fill="#ded2b4" opacity="0.85"/><circle cx="205" cy="307" r="19" fill="#e0c060" opacity="0.85"/><circle cx="470" cy="315" r="10" fill="#e0c060" opacity="0.85"/><circle cx="217" cy="167" r="21" fill="#e0c060" opacity="0.85"/><circle cx="202" cy="349" r="21" fill="#8fa073" opacity="0.85"/><circle cx="197" cy="333" r="17" fill="#c67139" opacity="0.85"/><circle cx="340" cy="416" r="15" fill="#c67139" opacity="0.85"/><circle cx="339" cy="405" r="10" fill="#c67139" opacity="0.85"/><circle cx="327" cy="184" r="15" fill="#ded2b4" opacity="0.85"/><circle cx="275" cy="270" r="16" fill="#c67139" opacity="0.85"/><circle cx="407" cy="209" r="13" fill="#ded2b4" opacity="0.85"/><circle cx="340" cy="390" r="9" fill="#e0c060" opacity="0.85"/><circle cx="428" cy="361" r="9" fill="#e0c060" opacity="0.85"/><circle cx="283" cy="313" r="15" fill="#c67139" opacity="0.85"/><circle cx="274" cy="147" r="16" fill="#c67139" opacity="0.85"/><circle cx="439" cy="195" r="15" fill="#ded2b4" opacity="0.85"/><circle cx="261" cy="389" r="16" fill="#c67139" opacity="0.85"/><circle cx="122" cy="307" r="17" fill="#e0c060" opacity="0.85"/><circle cx="474" cy="266" r="13" fill="#ded2b4" opacity="0.85"/><circle cx="258" cy="204" r="10" fill="#e0c060" opacity="0.85"/><circle cx="227" cy="408" r="9" fill="#8fa073" opacity="0.85"/><circle cx="152" cy="365" r="21" fill="#c67139" opacity="0.85"/></g><circle cx="300" cy="300" r="208" fill="none" stroke="#dcd3c4" stroke-width="6"/></svg>