<svg xmlns="http://www.w3.org/2000/svg" viewBox="0 0 600 600" width="600" height="600" role="img" aria-label="Spanish Tortilla"><rect width="600" height="600" fill="#f0e4cc"/><circle cx="300" cy="300" r="230" fill="#e4d8bf" opacity="0.55"/><circle cx="300" cy="300" r="208" fill="#f6efdf"/><clipPath id="p"><circle cx="300" cy="300" r="194"/></clipPath><g clip-path="url(#p)"><circle cx="300" cy="300" r="182" fill="#c1502e" opacity="0.28"/><circle cx="278" cy="136" r="21" fill="#8fa073" opacity="0.85"/><circle cx="288" cy="154" r="19" fill="#8fa073" opacity="0.85"/><circle cx="377" cy="289" r="16" fill="#c1502e" opacity="0.85"/><circle cx="294" cy="423" r="14" fill="#8a6a45" opacity="0.85"/><circle cx="373" cy="462" r="18" fill="#8a6a45" opacity="0.85"/><circle cx="323" cy="312" r="11" fill="#8a6a45" opacity="0.85"/><circle cx="408" cy="160" r="20" fill="#c1502e" opacity="0.85"/><circle cx="247" cy="328" r="10" fill="#8a6a45" opacity="0.85"/><circle cx="226" cy="334" r="19" fill="#e0a93b" opacity="0.85"/><circle cx="160" cy="324" r="13" fill="#8fa073" opacity="0.85"/><circle cx="443" cy="324" r="11" fill="#8a6a45" opacity="0.85"/><circle cx="308" cy="147" r="20" fill="#e0a93b" opacity="0.85"/><circle cx="431" cy="285" r="10" fill="#8a6a45" opacity="0.85"/><circle cx="203" cy="402" r="16" fill="#8a6a45" opacity="0.85"/><circle cx="303" cy="355" r="18" fill="#e0a93b" opacity="0.85"/><circle cx="464" cy="292" r="17" fill="#e0a93b" opacity="0.85"/><circle cx="132" cy="271" r="19" fill="#e0a93b" opacity="0.85"/><circle cx="289" cy="212" r="20" fill="#e0a93b" opacity="0.85"/><circle cx="211" cy="444" r="20" fill="#8fa073" opacity="0.85"/><circle cx="313" cy="192" r="20" fill="#8a6a45" opacity="0.85"/><circle cx="305" cy="149" r="16" fill="#8a6a45" opacity="0.85"/><circle cx="365" cy="190" r="11" fill="#c1502e" opacity="0.85"/><circle cx="457" cy="361" r="20" fill="#c1502e" opacity="0.85"/><circle cx="210" cy="320" r="17" fill="#8a6a45" opacity="0.85"/><circle cx="355" cy="393" r="18" fill="#e0a93b" opacity="0.85"/><circle cx="418" cy="393" r="17" fill="#8fa073" opacity="0.85"/><circle cx="398" cy="186" r="18" fill="#8fa073" opacity="0.85"/><circle cx="340" cy="300" r="21" fill="#e0a93b" opacity="0.85"/><circle cx="418" cy="185" r="21" fill="#8a6a45" opacity="0.85"/><circle cx="452" cy="212" r="11" fill="#8fa073" opacity="0.85"/><circle cx="290" cy="192" r="20" fill="#c1502e" opacity="0.85"/><circle cx="238" cy="210" r="20" fill="#e0a93b" opacity="0.85"/><circle cx="202" cy="333" r="12" fill="#e0a93b" opacity="0.85"/><circle cx="166" cy="396" r="13" fill="#e0a93b" opacity="0.85"/><circle cx="458" cy="305" r="12" fill="#8a6a45" opacity="0.85"/><circle cx="394" cy="200" r="12" fill="#8fa073" opacity="0.85"/><circle cx="237" cy="168" r="15" fill="#e0a93b" opacity="0.85"/><circle cx="280" cy="468" r="11" fill="#8fa073" opacity="0.85"/><circle cx="366" cy="392" r="20" fill="#e0a93b" opacity="0.85"/><circle cx="388" cy="344" r="18" fill="#c1502e" opacity="0.85"/><circle cx="137" cy="373" r="15" fill="#c1502e" opacity="0.85"/><circle cx="245" cy="249" r="21" fill="#c1502e" opacity="0.85"/><circle cx="191" cy="197" r="18" fill="#c1502e" opacity="0.85"/><circle cx="127" cy="312" r="9" fill="#c1502e" opacity="0.85"/><circle cx="210" cy="333" r="13" fill="#e0a93b" opacity="0.85"/><circle cx="296" cy="134" r="9" fill="#e0a93b" opacity="0.85"/><circle cx="198" cy="179" r="17" fill="#c1502e" opacity="0.85"/><circle cx="396" cy="264" r="15" fill="#e0a93b" opacity="0.85"/><circle cx="417" cy="424" r="11" fill="#c1502e" opacity="0.85"/><circle cx="456" cy="264" r="19" fill="#8a6a45" opacity="0.85"/><circle cx="471" cy="323" r="22" fill="#8fa073" opacity="0.85"/><circle cx="265" cy="225" r="11" fill="#c1502e" opacity="0.85"/><circle cx="233" cy="344" r="19" fill="#c1502e" opacity="0.85"/><circle cx="265" cy="323" r="9" fill="#8a6a45" opacity="0.85"/><circle cx="373" cy="294" r="15" fill="#c1502e" opacity="0.85"/><circle cx="370" cy="452" r="13" fill="#8a6a45" opacity="0.85"/><circle cx="275" cy="300" r="15" fill="#8fa073" opacity="0.85"/><circle cx="372" cy="199" r="14" fill="#8fa073" opacity="0.85"/><circle cx="460" cy="269" r="13" fill="#e0a93b" opacity="0.85"/><circle cx="440" cy="270" r="15" fill="#8fa073" opacity="0.85"/><circle cx="304" cy="200" r="10" fill="#8a6a45" opacity="0.85"/><circle cx="202" cy="292" r="17" fill="#8a6a45" opacity="0.85"/><circle cx="245" cy="324" r="14" fill="#8fa073" opacity="0.85"/><circle cx="192" cy="363" r="10" fill="#c1502e" opacity="0.85"/><circle cx="158" cy="337" r="15" fill="#e0a93b" opacity="0.85"/><circle cx="408" cy="206" r="20" fill="#8a6a45" opacity="0.85"/><circle cx="240" cy="169" r="19" fill="#e0a93b" opacity="0.85"/><circle cx="177" cy="238" r="16" fill="#c1502e" opacity="0.85"/><circle cx="189" cy="171" r="17" fill="#8fa073" opacity="0.85"/><circle cx="247" cy="290" r="19" fill="#8a6a45" opacity="0.85"/><circle cx="279" cy="261" r="20" fill="#8a6a45" opacity="0.85"/><circle cx="464" cy="271" r="17" fill="#8fa073" opacity="0.85"/><circle cx="399" cy="204" r="13" fill="#8fa073" opacity="0.85"/><circle cx="377" cy="237" r="13" fill="#e0a93b" opacity="0.85"/><circle cx="361" cy="185" r="20" fill="#8a6a45" opacity="0.85"/><circle cx="175" cy="357" r="19" fill="#8fa073" opacity="0.85"/><circle cx="391" cy="413" r="9" fill="#c1502e" opacity="0.85"/><circle cx="395" cy="390" r="17" fill="#c1502e" opacity="0.85"/><circle cx="363" cy="214" r="21" fill="#e0a93b" opacity="0.85"/><circle cx="424" cy="188" r="15" fill="#8a6a45" opacity="0.85"/><circle cx="148" cy="222" r="14" fill="#c1502e" opacity="0.85"/><circle cx="356" cy="249" r="16" fill="#8a6a45" opacity="0.85"/><circle cx="175" cy="276" r="17" fill="#8fa073" opacity="0.85"/><circle cx="346" cy="386" r="14" fill="#8a6a45" opacity="0.85"/><circle cx="238" cy="429" r="19" fill="#e0a93b" opacity="0.85"/><circle cx="359" cy="394" r="19" fill="#8fa073" opacity="0.85"/><circle cx="223" cy="267" r="11" fill="#8a6a45" opacity="0.85"/><circle cx="389" cy="218" r="9" fill="#c1502e" opacity="0.85"/><circle cx="268" cy="360" r="9" fill="#c1502e" opacity="0.85"/><circle cx="418" cy="367" r="13" fill="#e0a93b" opacity="0.85"/><circle cx="216" cy="395" r="19" fill="#c1502e" opacity="0.85"/><circle cx="387" cy="394" r="17" fill="#8fa073" opacity="0.85"/><circle cx="346" cy="389" r="15" fill="#8a6a45" opacity="0.85"/><circle cx="294" cy="264" r="21" fill="#8fa073" opacity="0.85"/><circle cx="408" cy="186" r="20" fill="#8a6a45" opacity="0.85"/><circle cx="172" cy="388" r="17" fill="#8fa073" opacity="0.85"/><circle cx="351" cy="243" r="17" fill="#8fa073" opacity="0.85"/><circle cx="407" cy="240" r="10" fill="#8a6a45" opacity="0.85"/><circle cx="233" cy="380" r="16" fill="#c1502e" opacity="0.85"/><circle cx="257" cy="361" r="12" fill="#c1502e" opacity="0.85"/><circle cx="230" cy="193" r="20" fill="#8fa073" opacity="0.85"/><circle cx="414" cy="366" r="14" fill="#c1502e" opacity="0.85"/><circle cx="296" cy="328" r="20" fill="#c1502e" opacity="0.85"/><circle cx="276" cy="284" r="13" fill="#e0a93b" opacity="0.85"/><circle cx="368" cy="224" r="18" fill="#8fa073" opacity="0.85"/><circle cx="422" cy="313" r="12" fill="#8fa073" opacity="0.85"/><circle cx="450" cy="300" r="21" fill="#c1502e" opacity="0.85"/><circle cx="200" cy="258" r="9" fill="#c1502e" opacity="0.85"/><circle cx="246" cy="187" r="19" fill="#c1502e" opacity="0.85"/><circle cx="276" cy="167" r="18" fill="#8a6a45" opacity="0.85"/><circle cx="275" cy="135" r="15" fill="#c1502e" opacity="0.85"/><circle cx="264" cy="441" r="22" fill="#c1502e" opacity="0.85"/><circle cx="390" cy="281" r="19" fill="#e0a93b" opacity="0.85"/><circle cx="340" cy="458" r="20" fill="#8a6a45" opacity="0.85"/><circle cx="316" cy="379" r="11" fill="#c1502e" opacity="0.85"/><circle cx="317" cy="398" r="16" fill="#8a6a45" opacity="0.85"/><circle cx="436" cy="397" r="10" fill="#8fa073" opacity="0.85"/><circle cx="247" cy="407" r="16" fill="#8fa073" opacity="0.85"/><circle cx="264" cy="252" r="18" fill="#8fa073" opacity="0.85"/><circle cx="381" cy="322" r="14" fill="#e0a93b" opacity="0.85"/></g><circle cx="300" cy="300" r="208" fill="none" stroke="#dcd3c4" stroke-width="6"/></svg>