<svg xmlns="http://www.w3.org/2000/svg" viewBox="0 0 600 600" width="600" height="600" role="img" aria-label="Waakye Rice and Beans"><rect width="600" height="600" fill="#f0e4cc"/><circle cx="300" cy="300" r="230" fill="#e4d8bf" opacity="0.55"/><circle cx="300" cy="300" r="208" fill="#faf4e8"/><clipPath id="p"><circle cx="300" cy="300" r="194"/></clipPath><g clip-path="url(#p)"><circle cx="300" cy="300" r="182" fill="#c67139" opacity="0.28"/><path d="M141 157 q 159 -8 319 0" fill="none" stroke="#e0a93b" stroke-width="20" stroke-linecap="round" opacity="0.88" transform="rotate(2 300 300)"/><path d="M130 181 q 170 14 341 0" fill="none" stroke="#c67139" stroke-width="18" stroke-linecap="round" opacity="0.88" transform="rotate(25 300 300)"/><path d="M117 194 q 183 -13 366 0" fill="none" stroke="#e0a93b" stroke-width="16" stroke-linecap="round" opacity="0.88" transform="rotate(22 300 300)"/><path d="M180 211 q 120 -1 241 0" fill="none" stroke="#8fa073" stroke-width="19" stroke-linecap="round" opacity="0.88" transform="rotate(16 300 300)"/><path d="M118 216 q 182 -10 363 0" fill="none" stroke="#e0a93b" stroke-width="12" stroke-linecap="round" opacity="0.88" transform="rotate(26 300 300)"/><path d="M190 240 q 110 -9 221 0" fill="none" stroke="#c67139" stroke-width="19" stroke-linecap="round" opacity="0.88" transform="rotate(5 300 300)"/><path d="M156 253 q 144 -4 288 0" fill="none" stroke="#8fa073" stroke-width="16" stroke-linecap="round" opacity="0.88" transform="rotate(-10 300 300)"/><path d="M186 258 q 114 3 228 0" fill="none" stroke="#c67139" stroke-width="19" stroke-linecap="round" opacity="0.88" transform="rotate(-1 300 300)"/><path d="M121 272 q 179 3 358 0" fill="none" stroke="#c67139" stroke-width="14" stroke-linecap="round" opacity="0.88" transform="rotate(1 300 300)"/><path d="M147 289 q 153 -7 306 0" fill="none" stroke="#8fa073" stroke-width="11" stroke-linecap="round" opacity="0.88" transform="rotate(-5 300 300)"/><path d="M174 309 q 126 25 253 0" fill="none" stroke="#e0a93b" stroke-width="13" stroke-linecap="round" opacity="0.88" transform="rotate(23 300 300)"/><path d="M161 318 q 139 18 279 0" fill="none" stroke="#e0a93b" stroke-width="18" stroke-linecap="round" opacity="0.88" transform="rotate(7 300 300)"/><path d="M143 336 q 157 23 314 0" fill="none" stroke="#e0a93b" stroke-width="19" stroke-linecap="round" opacity="0.88" transform="rotate(21 300 300)"/><path d="M175 358 q 125 17 251 0" fill="none" stroke="#8fa073" stroke-width="15" stroke-linecap="round" opacity="0.88" transform="rotate(12 300 300)"/><path d="M120 360 q 180 -1 360 0" fill="none" stroke="#c67139" stroke-width="17" stroke-linecap="round" opacity="0.88" transform="rotate(-10 300 300)"/><path d="M122 375 q 178 -16 357 0" fill="none" stroke="#e0a93b" stroke-width="11" stroke-linecap="round" opacity="0.88" transform="rotate(2 300 300)"/><path d="M184 400 q 116 20 232 0" fill="none" stroke="#8a6a45" stroke-width="14" stroke-linecap="round" opacity="0.88" transform="rotate(-7 300 300)"/><path d="M143 414 q 157 10 314 0" fill="none" stroke="#e0a93b" stroke-width="15" stroke-linecap="round" opacity="0.88" transform="rotate(-23 300 300)"/><path d="M190 426 q 110 8 221 0" fill="none" stroke="#8fa073" stroke-width="16" stroke-linecap="round" opacity="0.88" transform="rotate(15 300 300)"/><path d="M119 429 q 181 7 362 0" fill="none" stroke="#8fa073" stroke-width="17" stroke-linecap="round" opacity="0.88" transform="rotate(29 300 300)"/></g><circle cx="300" cy="300" r="208" fill="none" stroke="#dcd3c4" stroke-width="6"/></svg>